<?xml version="1.0" encoding="UTF-8"?>
<svg xmlns="http://www.w3.org/2000/svg" xmlns:xlink="http://www.w3.org/1999/xlink" width="375pt" height="374.999991pt" viewBox="0 0 375 374.999991" version="1.2">
<defs>
<clipPath id="clip1">
  <path d="M 17.101562 17.101562 L 357.308594 17.101562 L 357.308594 357.308594 L 17.101562 357.308594 Z M 17.101562 17.101562 "/>
</clipPath>
<clipPath id="clip2">
  <path d="M 205.164062 19 L 214 19 L 214 355 L 205.164062 355 Z M 205.164062 19 "/>
</clipPath>
<clipPath id="clip3">
  <path d="M 354.769531 187.207031 C 354.769531 279.746094 279.75 354.769531 187.207031 354.769531 C 94.664062 354.769531 19.644531 279.746094 19.644531 187.207031 C 19.644531 94.660156 94.664062 19.640625 187.207031 19.640625 C 279.75 19.640625 354.769531 94.660156 354.769531 187.207031 Z M 354.769531 187.207031 "/>
</clipPath>
<clipPath id="clip4">
  <path d="M 177.210938 253 L 186 253 L 186 355 L 177.210938 355 Z M 177.210938 253 "/>
</clipPath>
<clipPath id="clip5">
  <path d="M 354.769531 187.207031 C 354.769531 279.746094 279.75 354.769531 187.207031 354.769531 C 94.664062 354.769531 19.644531 279.746094 19.644531 187.207031 C 19.644531 94.660156 94.664062 19.640625 187.207031 19.640625 C 279.75 19.640625 354.769531 94.660156 354.769531 187.207031 Z M 354.769531 187.207031 "/>
</clipPath>
<clipPath id="clip6">
  <path d="M 177.210938 49.292969 L 186 49.292969 L 186 229.730469 L 177.210938 229.730469 Z M 177.210938 49.292969 "/>
</clipPath>
<clipPath id="clip7">
  <path d="M 354.769531 187.207031 C 354.769531 279.746094 279.75 354.769531 187.207031 354.769531 C 94.664062 354.769531 19.644531 279.746094 19.644531 187.207031 C 19.644531 94.660156 94.664062 19.640625 187.207031 19.640625 C 279.75 19.640625 354.769531 94.660156 354.769531 187.207031 Z M 354.769531 187.207031 "/>
</clipPath>
<clipPath id="clip8">
  <path d="M 177.210938 19 L 186 19 L 186 24 L 177.210938 24 Z M 177.210938 19 "/>
</clipPath>
<clipPath id="clip9">
  <path d="M 354.769531 187.207031 C 354.769531 279.746094 279.75 354.769531 187.207031 354.769531 C 94.664062 354.769531 19.644531 279.746094 19.644531 187.207031 C 19.644531 94.660156 94.664062 19.640625 187.207031 19.640625 C 279.75 19.640625 354.769531 94.660156 354.769531 187.207031 Z M 354.769531 187.207031 "/>
</clipPath>
<clipPath id="clip10">
  <path d="M 149.253906 330 L 157.726562 330 L 157.726562 355 L 149.253906 355 Z M 149.253906 330 "/>
</clipPath>
<clipPath id="clip11">
  <path d="M 354.769531 187.207031 C 354.769531 279.746094 279.75 354.769531 187.207031 354.769531 C 94.664062 354.769531 19.644531 279.746094 19.644531 187.207031 C 19.644531 94.660156 94.664062 19.640625 187.207031 19.640625 C 279.75 19.640625 354.769531 94.660156 354.769531 187.207031 Z M 354.769531 187.207031 "/>
</clipPath>
<clipPath id="clip12">
  <path d="M 149.253906 225.496094 L 157.726562 225.496094 L 157.726562 285.644531 L 149.253906 285.644531 Z M 149.253906 225.496094 "/>
</clipPath>
<clipPath id="clip13">
  <path d="M 354.769531 187.207031 C 354.769531 279.746094 279.75 354.769531 187.207031 354.769531 C 94.664062 354.769531 19.644531 279.746094 19.644531 187.207031 C 19.644531 94.660156 94.664062 19.640625 187.207031 19.640625 C 279.75 19.640625 354.769531 94.660156 354.769531 187.207031 Z M 354.769531 187.207031 "/>
</clipPath>
<clipPath id="clip14">
  <path d="M 149.253906 99 L 157.726562 99 L 157.726562 179.75 L 149.253906 179.75 Z M 149.253906 99 "/>
</clipPath>
<clipPath id="clip15">
  <path d="M 354.769531 187.207031 C 354.769531 279.746094 279.75 354.769531 187.207031 354.769531 C 94.664062 354.769531 19.644531 279.746094 19.644531 187.207031 C 19.644531 94.660156 94.664062 19.640625 187.207031 19.640625 C 279.75 19.640625 354.769531 94.660156 354.769531 187.207031 Z M 354.769531 187.207031 "/>
</clipPath>
<clipPath id="clip16">
  <path d="M 149.253906 19 L 157.726562 19 L 157.726562 78.941406 L 149.253906 78.941406 Z M 149.253906 19 "/>
</clipPath>
<clipPath id="clip17">
  <path d="M 354.769531 187.207031 C 354.769531 279.746094 279.75 354.769531 187.207031 354.769531 C 94.664062 354.769531 19.644531 279.746094 19.644531 187.207031 C 19.644531 94.660156 94.664062 19.640625 187.207031 19.640625 C 279.75 19.640625 354.769531 94.660156 354.769531 187.207031 Z M 354.769531 187.207031 "/>
</clipPath>
<clipPath id="clip18">
  <path d="M 121 152 L 129.769531 152 L 129.769531 355 L 121 355 Z M 121 152 "/>
</clipPath>
<clipPath id="clip19">
  <path d="M 354.769531 187.207031 C 354.769531 279.746094 279.75 354.769531 187.207031 354.769531 C 94.664062 354.769531 19.644531 279.746094 19.644531 187.207031 C 19.644531 94.660156 94.664062 19.640625 187.207031 19.640625 C 279.75 19.640625 354.769531 94.660156 354.769531 187.207031 Z M 354.769531 187.207031 "/>
</clipPath>
<clipPath id="clip20">
  <path d="M 121 19 L 129.769531 19 L 129.769531 124.6875 L 121 124.6875 Z M 121 19 "/>
</clipPath>
<clipPath id="clip21">
  <path d="M 354.769531 187.207031 C 354.769531 279.746094 279.75 354.769531 187.207031 354.769531 C 94.664062 354.769531 19.644531 279.746094 19.644531 187.207031 C 19.644531 94.660156 94.664062 19.640625 187.207031 19.640625 C 279.75 19.640625 354.769531 94.660156 354.769531 187.207031 Z M 354.769531 187.207031 "/>
</clipPath>
<clipPath id="clip22">
  <path d="M 92.496094 19 L 101.816406 19 L 101.816406 355 L 92.496094 355 Z M 92.496094 19 "/>
</clipPath>
<clipPath id="clip23">
  <path d="M 354.769531 187.207031 C 354.769531 279.746094 279.75 354.769531 187.207031 354.769531 C 94.664062 354.769531 19.644531 279.746094 19.644531 187.207031 C 19.644531 94.660156 94.664062 19.640625 187.207031 19.640625 C 279.75 19.640625 354.769531 94.660156 354.769531 187.207031 Z M 354.769531 187.207031 "/>
</clipPath>
<clipPath id="clip24">
  <path d="M 64.542969 19 L 73.859375 19 L 73.859375 355 L 64.542969 355 Z M 64.542969 19 "/>
</clipPath>
<clipPath id="clip25">
  <path d="M 354.769531 187.207031 C 354.769531 279.746094 279.75 354.769531 187.207031 354.769531 C 94.664062 354.769531 19.644531 279.746094 19.644531 187.207031 C 19.644531 94.660156 94.664062 19.640625 187.207031 19.640625 C 279.75 19.640625 354.769531 94.660156 354.769531 187.207031 Z M 354.769531 187.207031 "/>
</clipPath>
<clipPath id="clip26">
  <path d="M 36.585938 19 L 45 19 L 45 355 L 36.585938 355 Z M 36.585938 19 "/>
</clipPath>
<clipPath id="clip27">
  <path d="M 354.769531 187.207031 C 354.769531 279.746094 279.75 354.769531 187.207031 354.769531 C 94.664062 354.769531 19.644531 279.746094 19.644531 187.207031 C 19.644531 94.660156 94.664062 19.640625 187.207031 19.640625 C 279.75 19.640625 354.769531 94.660156 354.769531 187.207031 Z M 354.769531 187.207031 "/>
</clipPath>
<clipPath id="clip28">
  <path d="M 40 19.644531 L 125.535156 19.644531 L 125.535156 28.117188 L 40 28.117188 Z M 40 19.644531 "/>
</clipPath>
<clipPath id="clip29">
  <path d="M 354.769531 187.207031 C 354.769531 279.746094 279.75 354.769531 187.207031 354.769531 C 94.664062 354.769531 19.644531 279.746094 19.644531 187.207031 C 19.644531 94.660156 94.664062 19.640625 187.207031 19.640625 C 279.75 19.640625 354.769531 94.660156 354.769531 187.207031 Z M 354.769531 187.207031 "/>
</clipPath>
<clipPath id="clip30">
  <path d="M 153 19.644531 L 210 19.644531 L 210 28.117188 L 153 28.117188 Z M 153 19.644531 "/>
</clipPath>
<clipPath id="clip31">
  <path d="M 354.769531 187.207031 C 354.769531 279.746094 279.75 354.769531 187.207031 354.769531 C 94.664062 354.769531 19.644531 279.746094 19.644531 187.207031 C 19.644531 94.660156 94.664062 19.640625 187.207031 19.640625 C 279.75 19.640625 354.769531 94.660156 354.769531 187.207031 Z M 354.769531 187.207031 "/>
</clipPath>
<clipPath id="clip32">
  <path d="M 40 71 L 157.726562 71 L 157.726562 79.789062 L 40 79.789062 Z M 40 71 "/>
</clipPath>
<clipPath id="clip33">
  <path d="M 354.769531 187.207031 C 354.769531 279.746094 279.75 354.769531 187.207031 354.769531 C 94.664062 354.769531 19.644531 279.746094 19.644531 187.207031 C 19.644531 94.660156 94.664062 19.640625 187.207031 19.640625 C 279.75 19.640625 354.769531 94.660156 354.769531 187.207031 Z M 354.769531 187.207031 "/>
</clipPath>
<clipPath id="clip34">
  <path d="M 181.445312 71 L 210 71 L 210 79.789062 L 181.445312 79.789062 Z M 181.445312 71 "/>
</clipPath>
<clipPath id="clip35">
  <path d="M 354.769531 187.207031 C 354.769531 279.746094 279.75 354.769531 187.207031 354.769531 C 94.664062 354.769531 19.644531 279.746094 19.644531 187.207031 C 19.644531 94.660156 94.664062 19.640625 187.207031 19.640625 C 279.75 19.640625 354.769531 94.660156 354.769531 187.207031 Z M 354.769531 187.207031 "/>
</clipPath>
<clipPath id="clip36">
  <path d="M 40 96.734375 L 210 96.734375 L 210 106 L 40 106 Z M 40 96.734375 "/>
</clipPath>
<clipPath id="clip37">
  <path d="M 354.769531 187.207031 C 354.769531 279.746094 279.75 354.769531 187.207031 354.769531 C 94.664062 354.769531 19.644531 279.746094 19.644531 187.207031 C 19.644531 94.660156 94.664062 19.640625 187.207031 19.640625 C 279.75 19.640625 354.769531 94.660156 354.769531 187.207031 Z M 354.769531 187.207031 "/>
</clipPath>
<clipPath id="clip38">
  <path d="M 40 122.148438 L 153.492188 122.148438 L 153.492188 131 L 40 131 Z M 40 122.148438 "/>
</clipPath>
<clipPath id="clip39">
  <path d="M 354.769531 187.207031 C 354.769531 279.746094 279.75 354.769531 187.207031 354.769531 C 94.664062 354.769531 19.644531 279.746094 19.644531 187.207031 C 19.644531 94.660156 94.664062 19.640625 187.207031 19.640625 C 279.75 19.640625 354.769531 94.660156 354.769531 187.207031 Z M 354.769531 187.207031 "/>
</clipPath>
<clipPath id="clip40">
  <path d="M 181.445312 122.148438 L 210 122.148438 L 210 131 L 181.445312 131 Z M 181.445312 122.148438 "/>
</clipPath>
<clipPath id="clip41">
  <path d="M 354.769531 187.207031 C 354.769531 279.746094 279.75 354.769531 187.207031 354.769531 C 94.664062 354.769531 19.644531 279.746094 19.644531 187.207031 C 19.644531 94.660156 94.664062 19.640625 187.207031 19.640625 C 279.75 19.640625 354.769531 94.660156 354.769531 187.207031 Z M 354.769531 187.207031 "/>
</clipPath>
<clipPath id="clip42">
  <path d="M 40 45.058594 L 97.578125 45.058594 L 97.578125 54 L 40 54 Z M 40 45.058594 "/>
</clipPath>
<clipPath id="clip43">
  <path d="M 354.769531 187.207031 C 354.769531 279.746094 279.75 354.769531 187.207031 354.769531 C 94.664062 354.769531 19.644531 279.746094 19.644531 187.207031 C 19.644531 94.660156 94.664062 19.640625 187.207031 19.640625 C 279.75 19.640625 354.769531 94.660156 354.769531 187.207031 Z M 354.769531 187.207031 "/>
</clipPath>
<clipPath id="clip44">
  <path d="M 125 45.058594 L 186 45.058594 L 186 54 L 125 54 Z M 125 45.058594 "/>
</clipPath>
<clipPath id="clip45">
  <path d="M 354.769531 187.207031 C 354.769531 279.746094 279.75 354.769531 187.207031 354.769531 C 94.664062 354.769531 19.644531 279.746094 19.644531 187.207031 C 19.644531 94.660156 94.664062 19.640625 187.207031 19.640625 C 279.75 19.640625 354.769531 94.660156 354.769531 187.207031 Z M 354.769531 187.207031 "/>
</clipPath>
<clipPath id="clip46">
  <path d="M 40 152 L 69 152 L 69 161 L 40 161 Z M 40 152 "/>
</clipPath>
<clipPath id="clip47">
  <path d="M 354.769531 187.207031 C 354.769531 279.746094 279.75 354.769531 187.207031 354.769531 C 94.664062 354.769531 19.644531 279.746094 19.644531 187.207031 C 19.644531 94.660156 94.664062 19.640625 187.207031 19.640625 C 279.75 19.640625 354.769531 94.660156 354.769531 187.207031 Z M 354.769531 187.207031 "/>
</clipPath>
<clipPath id="clip48">
  <path d="M 125 152 L 210 152 L 210 161 L 125 161 Z M 125 152 "/>
</clipPath>
<clipPath id="clip49">
  <path d="M 354.769531 187.207031 C 354.769531 279.746094 279.75 354.769531 187.207031 354.769531 C 94.664062 354.769531 19.644531 279.746094 19.644531 187.207031 C 19.644531 94.660156 94.664062 19.640625 187.207031 19.640625 C 279.75 19.640625 354.769531 94.660156 354.769531 187.207031 Z M 354.769531 187.207031 "/>
</clipPath>
<clipPath id="clip50">
  <path d="M 40 199.234375 L 210 199.234375 L 210 208.554688 L 40 208.554688 Z M 40 199.234375 "/>
</clipPath>
<clipPath id="clip51">
  <path d="M 354.769531 187.207031 C 354.769531 279.746094 279.75 354.769531 187.207031 354.769531 C 94.664062 354.769531 19.644531 279.746094 19.644531 187.207031 C 19.644531 94.660156 94.664062 19.640625 187.207031 19.640625 C 279.75 19.640625 354.769531 94.660156 354.769531 187.207031 Z M 354.769531 187.207031 "/>
</clipPath>
<clipPath id="clip52">
  <path d="M 40 251 L 69 251 L 69 260 L 40 260 Z M 40 251 "/>
</clipPath>
<clipPath id="clip53">
  <path d="M 354.769531 187.207031 C 354.769531 279.746094 279.75 354.769531 187.207031 354.769531 C 94.664062 354.769531 19.644531 279.746094 19.644531 187.207031 C 19.644531 94.660156 94.664062 19.640625 187.207031 19.640625 C 279.75 19.640625 354.769531 94.660156 354.769531 187.207031 Z M 354.769531 187.207031 "/>
</clipPath>
<clipPath id="clip54">
  <path d="M 125 251 L 186 251 L 186 260 L 125 260 Z M 125 251 "/>
</clipPath>
<clipPath id="clip55">
  <path d="M 354.769531 187.207031 C 354.769531 279.746094 279.75 354.769531 187.207031 354.769531 C 94.664062 354.769531 19.644531 279.746094 19.644531 187.207031 C 19.644531 94.660156 94.664062 19.640625 187.207031 19.640625 C 279.75 19.640625 354.769531 94.660156 354.769531 187.207031 Z M 354.769531 187.207031 "/>
</clipPath>
<clipPath id="clip56">
  <path d="M 68.777344 174 L 125.535156 174 L 125.535156 183 L 68.777344 183 Z M 68.777344 174 "/>
</clipPath>
<clipPath id="clip57">
  <path d="M 354.769531 187.207031 C 354.769531 279.746094 279.75 354.769531 187.207031 354.769531 C 94.664062 354.769531 19.644531 279.746094 19.644531 187.207031 C 19.644531 94.660156 94.664062 19.640625 187.207031 19.640625 C 279.75 19.640625 354.769531 94.660156 354.769531 187.207031 Z M 354.769531 187.207031 "/>
</clipPath>
<clipPath id="clip58">
  <path d="M 149.253906 174 L 210 174 L 210 183 L 149.253906 183 Z M 149.253906 174 "/>
</clipPath>
<clipPath id="clip59">
  <path d="M 354.769531 187.207031 C 354.769531 279.746094 279.75 354.769531 187.207031 354.769531 C 94.664062 354.769531 19.644531 279.746094 19.644531 187.207031 C 19.644531 94.660156 94.664062 19.640625 187.207031 19.640625 C 279.75 19.640625 354.769531 94.660156 354.769531 187.207031 Z M 354.769531 187.207031 "/>
</clipPath>
<clipPath id="clip60">
  <path d="M 68.777344 225.496094 L 125.535156 225.496094 L 125.535156 233.96875 L 68.777344 233.96875 Z M 68.777344 225.496094 "/>
</clipPath>
<clipPath id="clip61">
  <path d="M 354.769531 187.207031 C 354.769531 279.746094 279.75 354.769531 187.207031 354.769531 C 94.664062 354.769531 19.644531 279.746094 19.644531 187.207031 C 19.644531 94.660156 94.664062 19.640625 187.207031 19.640625 C 279.75 19.640625 354.769531 94.660156 354.769531 187.207031 Z M 354.769531 187.207031 "/>
</clipPath>
<clipPath id="clip62">
  <path d="M 153 225.496094 L 210 225.496094 L 210 233.96875 L 153 233.96875 Z M 153 225.496094 "/>
</clipPath>
<clipPath id="clip63">
  <path d="M 354.769531 187.207031 C 354.769531 279.746094 279.75 354.769531 187.207031 354.769531 C 94.664062 354.769531 19.644531 279.746094 19.644531 187.207031 C 19.644531 94.660156 94.664062 19.640625 187.207031 19.640625 C 279.75 19.640625 354.769531 94.660156 354.769531 187.207031 Z M 354.769531 187.207031 "/>
</clipPath>
<clipPath id="clip64">
  <path d="M 40 277 L 153.492188 277 L 153.492188 285.644531 L 40 285.644531 Z M 40 277 "/>
</clipPath>
<clipPath id="clip65">
  <path d="M 354.769531 187.207031 C 354.769531 279.746094 279.75 354.769531 187.207031 354.769531 C 94.664062 354.769531 19.644531 279.746094 19.644531 187.207031 C 19.644531 94.660156 94.664062 19.640625 187.207031 19.640625 C 279.75 19.640625 354.769531 94.660156 354.769531 187.207031 Z M 354.769531 187.207031 "/>
</clipPath>
<clipPath id="clip66">
  <path d="M 181.445312 277 L 210 277 L 210 285.644531 L 181.445312 285.644531 Z M 181.445312 277 "/>
</clipPath>
<clipPath id="clip67">
  <path d="M 354.769531 187.207031 C 354.769531 279.746094 279.75 354.769531 187.207031 354.769531 C 94.664062 354.769531 19.644531 279.746094 19.644531 187.207031 C 19.644531 94.660156 94.664062 19.640625 187.207031 19.640625 C 279.75 19.640625 354.769531 94.660156 354.769531 187.207031 Z M 354.769531 187.207031 "/>
</clipPath>
<clipPath id="clip68">
  <path d="M 40 328 L 157.726562 328 L 157.726562 337 L 40 337 Z M 40 328 "/>
</clipPath>
<clipPath id="clip69">
  <path d="M 354.769531 187.207031 C 354.769531 279.746094 279.75 354.769531 187.207031 354.769531 C 94.664062 354.769531 19.644531 279.746094 19.644531 187.207031 C 19.644531 94.660156 94.664062 19.640625 187.207031 19.640625 C 279.75 19.640625 354.769531 94.660156 354.769531 187.207031 Z M 354.769531 187.207031 "/>
</clipPath>
<clipPath id="clip70">
  <path d="M 181.445312 328 L 210 328 L 210 337 L 181.445312 337 Z M 181.445312 328 "/>
</clipPath>
<clipPath id="clip71">
  <path d="M 354.769531 187.207031 C 354.769531 279.746094 279.75 354.769531 187.207031 354.769531 C 94.664062 354.769531 19.644531 279.746094 19.644531 187.207031 C 19.644531 94.660156 94.664062 19.640625 187.207031 19.640625 C 279.75 19.640625 354.769531 94.660156 354.769531 187.207031 Z M 354.769531 187.207031 "/>
</clipPath>
<clipPath id="clip72">
  <path d="M 40 354 L 210 354 L 210 355 L 40 355 Z M 40 354 "/>
</clipPath>
<clipPath id="clip73">
  <path d="M 354.769531 187.207031 C 354.769531 279.746094 279.75 354.769531 187.207031 354.769531 C 94.664062 354.769531 19.644531 279.746094 19.644531 187.207031 C 19.644531 94.660156 94.664062 19.640625 187.207031 19.640625 C 279.75 19.640625 354.769531 94.660156 354.769531 187.207031 Z M 354.769531 187.207031 "/>
</clipPath>
<clipPath id="clip74">
  <path d="M 40 302.585938 L 210 302.585938 L 210 311.054688 L 40 311.054688 Z M 40 302.585938 "/>
</clipPath>
<clipPath id="clip75">
  <path d="M 354.769531 187.207031 C 354.769531 279.746094 279.75 354.769531 187.207031 354.769531 C 94.664062 354.769531 19.644531 279.746094 19.644531 187.207031 C 19.644531 94.660156 94.664062 19.640625 187.207031 19.640625 C 279.75 19.640625 354.769531 94.660156 354.769531 187.207031 Z M 354.769531 187.207031 "/>
</clipPath>
</defs>
<g id="surface1">
<path style=" stroke:none;fill-rule:nonzero;fill:rgb(70.588684%,11.369324%,13.729858%);fill-opacity:1;" d="M 354.769531 187.207031 C 354.769531 279.746094 279.753906 354.769531 187.207031 354.769531 C 94.664062 354.769531 19.644531 279.746094 19.644531 187.207031 C 19.644531 94.660156 94.664062 19.640625 187.207031 19.640625 C 279.753906 19.640625 354.769531 94.660156 354.769531 187.207031 "/>
<g clip-path="url(#clip1)" clip-rule="nonzero">
<path style="fill:none;stroke-width:60;stroke-linecap:butt;stroke-linejoin:miter;stroke:rgb(96.859741%,72.549438%,18.03894%);stroke-opacity:1;stroke-miterlimit:10;" d="M 3986.012189 2007.990839 C 3986.012189 915.607071 3100.485051 29.98771 2008.00906 29.98771 C 915.57918 29.98771 30.005931 915.607071 30.005931 2007.990839 C 30.005931 3100.46683 915.57918 3986.040079 2008.00906 3986.040079 C 3100.485051 3986.040079 3986.012189 3100.46683 3986.012189 2007.990839 Z M 3986.012189 2007.990839 " transform="matrix(0.084713,0,0,-0.084713,17.10264,357.309879)"/>
</g>
<g clip-path="url(#clip2)" clip-rule="nonzero">
<g clip-path="url(#clip3)" clip-rule="nonzero">
<path style=" stroke:none;fill-rule:nonzero;fill:rgb(97.24884%,72.938538%,18.429565%);fill-opacity:1;" d="M 213.929688 404.261719 L 205.660156 404.261719 L 205.660156 -14.976562 L 213.929688 -14.976562 L 213.929688 404.261719 "/>
</g>
</g>
<g clip-path="url(#clip4)" clip-rule="nonzero">
<g clip-path="url(#clip5)" clip-rule="nonzero">
<path style=" stroke:none;fill-rule:nonzero;fill:rgb(97.24884%,72.938538%,18.429565%);fill-opacity:1;" d="M 185.753906 404.261719 L 177.484375 404.261719 L 177.484375 253.125 L 185.753906 253.125 L 185.753906 404.261719 "/>
</g>
</g>
<g clip-path="url(#clip6)" clip-rule="nonzero">
<g clip-path="url(#clip7)" clip-rule="nonzero">
<path style=" stroke:none;fill-rule:nonzero;fill:rgb(97.24884%,72.938538%,18.429565%);fill-opacity:1;" d="M 185.753906 229.695312 L 177.484375 229.695312 L 177.484375 49.621094 L 185.753906 49.621094 L 185.753906 229.695312 "/>
</g>
</g>
<g clip-path="url(#clip8)" clip-rule="nonzero">
<g clip-path="url(#clip9)" clip-rule="nonzero">
<path style=" stroke:none;fill-rule:nonzero;fill:rgb(97.24884%,72.938538%,18.429565%);fill-opacity:1;" d="M 185.753906 23.898438 L 177.484375 23.898438 L 177.484375 -14.976562 L 185.753906 -14.976562 L 185.753906 23.898438 "/>
</g>
</g>
<g clip-path="url(#clip10)" clip-rule="nonzero">
<g clip-path="url(#clip11)" clip-rule="nonzero">
<path style=" stroke:none;fill-rule:nonzero;fill:rgb(97.24884%,72.938538%,18.429565%);fill-opacity:1;" d="M 157.582031 404.261719 L 149.3125 404.261719 L 149.3125 330.300781 L 157.582031 330.300781 L 157.582031 404.261719 "/>
</g>
</g>
<g clip-path="url(#clip12)" clip-rule="nonzero">
<g clip-path="url(#clip13)" clip-rule="nonzero">
<path style=" stroke:none;fill-rule:nonzero;fill:rgb(97.24884%,72.938538%,18.429565%);fill-opacity:1;" d="M 157.582031 285.28125 L 149.3125 285.28125 L 149.3125 225.5625 L 157.582031 225.5625 L 157.582031 285.28125 "/>
</g>
</g>
<g clip-path="url(#clip14)" clip-rule="nonzero">
<g clip-path="url(#clip15)" clip-rule="nonzero">
<path style=" stroke:none;fill-rule:nonzero;fill:rgb(97.24884%,72.938538%,18.429565%);fill-opacity:1;" d="M 157.582031 179.742188 L 149.3125 179.742188 L 149.3125 99.234375 L 157.582031 99.234375 L 157.582031 179.742188 "/>
</g>
</g>
<g clip-path="url(#clip16)" clip-rule="nonzero">
<g clip-path="url(#clip17)" clip-rule="nonzero">
<path style=" stroke:none;fill-rule:nonzero;fill:rgb(97.24884%,72.938538%,18.429565%);fill-opacity:1;" d="M 157.582031 78.105469 L 149.3125 78.105469 L 149.3125 -14.976562 L 157.582031 -14.976562 L 157.582031 78.105469 "/>
</g>
</g>
<g clip-path="url(#clip18)" clip-rule="nonzero">
<g clip-path="url(#clip19)" clip-rule="nonzero">
<path style=" stroke:none;fill-rule:nonzero;fill:rgb(97.24884%,72.938538%,18.429565%);fill-opacity:1;" d="M 129.402344 404.261719 L 121.136719 404.261719 L 121.136719 152.0625 L 129.402344 152.0625 L 129.402344 404.261719 "/>
</g>
</g>
<g clip-path="url(#clip20)" clip-rule="nonzero">
<g clip-path="url(#clip21)" clip-rule="nonzero">
<path style=" stroke:none;fill-rule:nonzero;fill:rgb(97.24884%,72.938538%,18.429565%);fill-opacity:1;" d="M 129.402344 124.675781 L 121.136719 124.675781 L 121.136719 -14.976562 L 129.402344 -14.976562 L 129.402344 124.675781 "/>
</g>
</g>
<g clip-path="url(#clip22)" clip-rule="nonzero">
<g clip-path="url(#clip23)" clip-rule="nonzero">
<path style=" stroke:none;fill-rule:nonzero;fill:rgb(97.24884%,72.938538%,18.429565%);fill-opacity:1;" d="M 101.230469 404.261719 L 92.960938 404.261719 L 92.960938 -14.976562 L 101.230469 -14.976562 L 101.230469 404.261719 "/>
</g>
</g>
<g clip-path="url(#clip24)" clip-rule="nonzero">
<g clip-path="url(#clip25)" clip-rule="nonzero">
<path style=" stroke:none;fill-rule:nonzero;fill:rgb(97.24884%,72.938538%,18.429565%);fill-opacity:1;" d="M 73.054688 404.261719 L 64.785156 404.261719 L 64.785156 -14.976562 L 73.054688 -14.976562 L 73.054688 404.261719 "/>
</g>
</g>
<g clip-path="url(#clip26)" clip-rule="nonzero">
<g clip-path="url(#clip27)" clip-rule="nonzero">
<path style=" stroke:none;fill-rule:nonzero;fill:rgb(97.24884%,72.938538%,18.429565%);fill-opacity:1;" d="M 44.878906 404.261719 L 36.613281 404.261719 L 36.613281 -14.976562 L 44.878906 -14.976562 L 44.878906 404.261719 "/>
</g>
</g>
<g clip-path="url(#clip28)" clip-rule="nonzero">
<g clip-path="url(#clip29)" clip-rule="nonzero">
<path style=" stroke:none;fill-rule:nonzero;fill:rgb(97.24884%,72.938538%,18.429565%);fill-opacity:1;" d="M 125.273438 28.03125 L 40.75 28.03125 L 40.75 19.761719 L 125.273438 19.761719 L 125.273438 28.03125 "/>
</g>
</g>
<g clip-path="url(#clip30)" clip-rule="nonzero">
<g clip-path="url(#clip31)" clip-rule="nonzero">
<path style=" stroke:none;fill-rule:nonzero;fill:rgb(97.24884%,72.938538%,18.429565%);fill-opacity:1;" d="M 209.796875 28.03125 L 153.445312 28.03125 L 153.445312 19.761719 L 209.796875 19.761719 L 209.796875 28.03125 "/>
</g>
</g>
<g clip-path="url(#clip32)" clip-rule="nonzero">
<g clip-path="url(#clip33)" clip-rule="nonzero">
<path style=" stroke:none;fill-rule:nonzero;fill:rgb(97.24884%,72.938538%,18.429565%);fill-opacity:1;" d="M 157.582031 79.484375 L 40.75 79.484375 L 40.75 71.214844 L 157.582031 71.214844 L 157.582031 79.484375 "/>
</g>
</g>
<g clip-path="url(#clip34)" clip-rule="nonzero">
<g clip-path="url(#clip35)" clip-rule="nonzero">
<path style=" stroke:none;fill-rule:nonzero;fill:rgb(97.24884%,72.938538%,18.429565%);fill-opacity:1;" d="M 209.796875 79.484375 L 181.621094 79.484375 L 181.621094 71.214844 L 209.796875 71.214844 L 209.796875 79.484375 "/>
</g>
</g>
<g clip-path="url(#clip36)" clip-rule="nonzero">
<g clip-path="url(#clip37)" clip-rule="nonzero">
<path style=" stroke:none;fill-rule:nonzero;fill:rgb(97.24884%,72.938538%,18.429565%);fill-opacity:1;" d="M 209.796875 105.207031 L 40.75 105.207031 L 40.75 96.9375 L 209.796875 96.9375 L 209.796875 105.207031 "/>
</g>
</g>
<g clip-path="url(#clip38)" clip-rule="nonzero">
<g clip-path="url(#clip39)" clip-rule="nonzero">
<path style=" stroke:none;fill-rule:nonzero;fill:rgb(97.24884%,72.938538%,18.429565%);fill-opacity:1;" d="M 153.449219 130.933594 L 40.75 130.933594 L 40.75 122.664062 L 153.449219 122.664062 L 153.449219 130.933594 "/>
</g>
</g>
<g clip-path="url(#clip40)" clip-rule="nonzero">
<g clip-path="url(#clip41)" clip-rule="nonzero">
<path style=" stroke:none;fill-rule:nonzero;fill:rgb(97.24884%,72.938538%,18.429565%);fill-opacity:1;" d="M 209.796875 130.933594 L 181.621094 130.933594 L 181.621094 122.664062 L 209.796875 122.664062 L 209.796875 130.933594 "/>
</g>
</g>
<g clip-path="url(#clip42)" clip-rule="nonzero">
<g clip-path="url(#clip43)" clip-rule="nonzero">
<path style=" stroke:none;fill-rule:nonzero;fill:rgb(97.24884%,72.938538%,18.429565%);fill-opacity:1;" d="M 97.097656 53.757812 L 40.75 53.757812 L 40.75 45.488281 L 97.097656 45.488281 L 97.097656 53.757812 "/>
</g>
</g>
<g clip-path="url(#clip44)" clip-rule="nonzero">
<g clip-path="url(#clip45)" clip-rule="nonzero">
<path style=" stroke:none;fill-rule:nonzero;fill:rgb(97.24884%,72.938538%,18.429565%);fill-opacity:1;" d="M 185.753906 53.757812 L 125.273438 53.757812 L 125.273438 45.488281 L 185.753906 45.488281 L 185.753906 53.757812 "/>
</g>
</g>
<g clip-path="url(#clip46)" clip-rule="nonzero">
<g clip-path="url(#clip47)" clip-rule="nonzero">
<path style=" stroke:none;fill-rule:nonzero;fill:rgb(97.24884%,72.938538%,18.429565%);fill-opacity:1;" d="M 68.917969 160.332031 L 40.75 160.332031 L 40.75 152.0625 L 68.917969 152.0625 L 68.917969 160.332031 "/>
</g>
</g>
<g clip-path="url(#clip48)" clip-rule="nonzero">
<g clip-path="url(#clip49)" clip-rule="nonzero">
<path style=" stroke:none;fill-rule:nonzero;fill:rgb(97.24884%,72.938538%,18.429565%);fill-opacity:1;" d="M 209.796875 160.332031 L 125.269531 160.332031 L 125.269531 152.0625 L 209.796875 152.0625 L 209.796875 160.332031 "/>
</g>
</g>
<g clip-path="url(#clip50)" clip-rule="nonzero">
<g clip-path="url(#clip51)" clip-rule="nonzero">
<path style=" stroke:none;fill-rule:nonzero;fill:rgb(97.24884%,72.938538%,18.429565%);fill-opacity:1;" d="M 209.796875 208.105469 L 40.75 208.105469 L 40.75 199.835938 L 209.796875 199.835938 L 209.796875 208.105469 "/>
</g>
</g>
<g clip-path="url(#clip52)" clip-rule="nonzero">
<g clip-path="url(#clip53)" clip-rule="nonzero">
<path style=" stroke:none;fill-rule:nonzero;fill:rgb(97.24884%,72.938538%,18.429565%);fill-opacity:1;" d="M 68.917969 259.558594 L 40.75 259.558594 L 40.75 251.289062 L 68.917969 251.289062 L 68.917969 259.558594 "/>
</g>
</g>
<g clip-path="url(#clip54)" clip-rule="nonzero">
<g clip-path="url(#clip55)" clip-rule="nonzero">
<path style=" stroke:none;fill-rule:nonzero;fill:rgb(97.24884%,72.938538%,18.429565%);fill-opacity:1;" d="M 185.753906 259.558594 L 125.269531 259.558594 L 125.269531 251.289062 L 185.753906 251.289062 L 185.753906 259.558594 "/>
</g>
</g>
<g clip-path="url(#clip56)" clip-rule="nonzero">
<g clip-path="url(#clip57)" clip-rule="nonzero">
<path style=" stroke:none;fill-rule:nonzero;fill:rgb(97.24884%,72.938538%,18.429565%);fill-opacity:1;" d="M 125.269531 182.382812 L 68.917969 182.382812 L 68.917969 174.113281 L 125.269531 174.113281 L 125.269531 182.382812 "/>
</g>
</g>
<g clip-path="url(#clip58)" clip-rule="nonzero">
<g clip-path="url(#clip59)" clip-rule="nonzero">
<path style=" stroke:none;fill-rule:nonzero;fill:rgb(97.24884%,72.938538%,18.429565%);fill-opacity:1;" d="M 209.796875 182.382812 L 149.3125 182.382812 L 149.3125 174.113281 L 209.796875 174.113281 L 209.796875 182.382812 "/>
</g>
</g>
<g clip-path="url(#clip60)" clip-rule="nonzero">
<g clip-path="url(#clip61)" clip-rule="nonzero">
<path style=" stroke:none;fill-rule:nonzero;fill:rgb(97.24884%,72.938538%,18.429565%);fill-opacity:1;" d="M 125.269531 233.832031 L 68.917969 233.832031 L 68.917969 225.5625 L 125.269531 225.5625 L 125.269531 233.832031 "/>
</g>
</g>
<g clip-path="url(#clip62)" clip-rule="nonzero">
<g clip-path="url(#clip63)" clip-rule="nonzero">
<path style=" stroke:none;fill-rule:nonzero;fill:rgb(97.24884%,72.938538%,18.429565%);fill-opacity:1;" d="M 209.796875 233.832031 L 153.449219 233.832031 L 153.449219 225.5625 L 209.796875 225.5625 L 209.796875 233.832031 "/>
</g>
</g>
<g clip-path="url(#clip64)" clip-rule="nonzero">
<g clip-path="url(#clip65)" clip-rule="nonzero">
<path style=" stroke:none;fill-rule:nonzero;fill:rgb(97.24884%,72.938538%,18.429565%);fill-opacity:1;" d="M 153.445312 285.28125 L 40.75 285.28125 L 40.75 277.011719 L 153.445312 277.011719 L 153.445312 285.28125 "/>
</g>
</g>
<g clip-path="url(#clip66)" clip-rule="nonzero">
<g clip-path="url(#clip67)" clip-rule="nonzero">
<path style=" stroke:none;fill-rule:nonzero;fill:rgb(97.24884%,72.938538%,18.429565%);fill-opacity:1;" d="M 209.796875 285.28125 L 181.625 285.28125 L 181.625 277.011719 L 209.796875 277.011719 L 209.796875 285.28125 "/>
</g>
</g>
<g clip-path="url(#clip68)" clip-rule="nonzero">
<g clip-path="url(#clip69)" clip-rule="nonzero">
<path style=" stroke:none;fill-rule:nonzero;fill:rgb(97.24884%,72.938538%,18.429565%);fill-opacity:1;" d="M 157.582031 336.730469 L 40.75 336.730469 L 40.75 328.460938 L 157.582031 328.460938 L 157.582031 336.730469 "/>
</g>
</g>
<g clip-path="url(#clip70)" clip-rule="nonzero">
<g clip-path="url(#clip71)" clip-rule="nonzero">
<path style=" stroke:none;fill-rule:nonzero;fill:rgb(97.24884%,72.938538%,18.429565%);fill-opacity:1;" d="M 209.796875 336.730469 L 181.625 336.730469 L 181.625 328.460938 L 209.796875 328.460938 L 209.796875 336.730469 "/>
</g>
</g>
<g clip-path="url(#clip72)" clip-rule="nonzero">
<g clip-path="url(#clip73)" clip-rule="nonzero">
<path style=" stroke:none;fill-rule:nonzero;fill:rgb(97.24884%,72.938538%,18.429565%);fill-opacity:1;" d="M 209.796875 362.457031 L 40.75 362.457031 L 40.75 354.1875 L 209.796875 354.1875 L 209.796875 362.457031 "/>
</g>
</g>
<g clip-path="url(#clip74)" clip-rule="nonzero">
<g clip-path="url(#clip75)" clip-rule="nonzero">
<path style=" stroke:none;fill-rule:nonzero;fill:rgb(97.24884%,72.938538%,18.429565%);fill-opacity:1;" d="M 209.796875 311.007812 L 40.75 311.007812 L 40.75 302.738281 L 209.796875 302.738281 L 209.796875 311.007812 "/>
</g>
</g>
</g>
</svg>
